<svg xmlns="http://www.w3.org/2000/svg" width="1024" height="1024" viewBox="0 0 1024 1024" xmlns:c2pa="http://c2pa.org/manifest"><metadata><c2pa:manifest>AAAWgmp1bWIAAAAeanVtZGMycGEAEQAQgAAAqgA4m3EDYzJwYQAAABZcanVtYgAAAEdqdW1kYzJtYQARABCAAACqADibcQN1cm46YzJwYTozOGEwMjFkMi0wZWQ4LTQ4NzktYjNkOC0wMWZiOTc4NDg4YTMAAAADl2p1bWIAAAApanVtZGMyYXMAEQAQgAAAqgA4m3EDYzJwYS5hc3NlcnRpb25zAAAAALxqdW1iAAAARGp1bWRjYm9yABEAEIAAAKoAOJtxE2MycGEuaW5ncmVkaWVudC52MwAAAAAYYzJzaL22otv/DRddtux4Tl1j5P4AAABwY2JvcqNpZGM6Zm9ybWF0bWltYWdlL3N2Zyt4bWxqaW5zdGFuY2VJRHgseG1wOmlpZDpmNWJlMTFiNy1jMDhhLTRlNWUtYTU1NC0wY2NlMTE4YWM4YjlscmVsYXRpb25zaGlwaHBhcmVudE9mAAAB4mp1bWIAAABBanVtZGNib3IAEQAQgAAAqgA4m3ETYzJwYS5hY3Rpb25zLnYyAAAAABhjMnNoiv4RBjNAyw2Ol7eFkznjtwAAAZljYm9yomdhY3Rpb25zgqJmYWN0aW9ua2MycGEub3BlbmVkanBhcmFtZXRlcnOha2luZ3JlZGllbnRzgaJjdXJseC1zZWxmI2p1bWJmPWMycGEuYXNzZXJ0aW9ucy9jMnBhLmluZ3JlZGllbnQudjNkaGFzaFgg9QKGzUpRHQLMVAV5JzbDaTc5V14QJPDsrv/L7+eHOcekZmFjdGlvbngdY29tLmFudGhyb3BpYy5jbGF1ZGUucHJvdmlkZWRqcGFyYW1ldGVyc6F4H2NvbS5hbnRocm9waWMub3JpZ2luLWNvbmZpZGVuY2VndW5rbm93bmtkZXNjcmlwdGlvbnhmQ2xhdWRlIHByb3ZpZGVkIHRoaXMgZmlsZSBhdCB0aGUgcmVxdWVzdCBvZiBhIHVzZXIgYW5kIG1heSBoYXZlIGNyZWF0ZWQgb3IgbW9kaWZpZWQgdGhlIGZpbGUgY29udGVudHMubXNvZnR3YXJlQWdlbnShZG5hbWVmQ2xhdWRlcmFsbEFjdGlvbnNJbmNsdWRlZPUAAADIanVtYgAAAEBqdW1kY2JvcgARABCAAACqADibcRNjMnBhLmhhc2guZGF0YQAAAAAYYzJzaM9eiSMiq3OYvg0YD9ZJ2+cAAACAY2JvcqVjYWxnZnNoYTI1NmNwYWRNAAAAAAAAAAAAAAAAAGRoYXNoWCDq9yHnUHlwxY+yhFRH43d1jbGfNnSzUFXTL5Xgbg65h2RuYW1lbmp1bWJmIG1hbmlmZXN0amV4Y2x1c2lvbnOBomVzdGFydBiaZmxlbmd0aBkeBAAAAj5qdW1iAAAAJ2p1bWRjMmNsABEAEIAAAKoAOJtxA2MycGEuY2xhaW0udjIAAAACD2Nib3KlY2FsZ2ZzaGEyNTZpc2lnbmF0dXJleE1zZWxmI2p1bWJmPS9jMnBhL3VybjpjMnBhOjM4YTAyMWQyLTBlZDgtNDg3OS1iM2Q4LTAxZmI5Nzg0ODhhMy9jMnBhLnNpZ25hdHVyZWppbnN0YW5jZUlEeCx4bXA6aWlkOjE0MjFjMTJhLTc2OTItNGNiMy1iM2M4LTI2MGYwY2YwNzgwYnJjcmVhdGVkX2Fzc2VydGlvbnODomN1cmx4LXNlbGYjanVtYmY9YzJwYS5hc3NlcnRpb25zL2MycGEuaW5ncmVkaWVudC52M2RoYXNoWCD1AobNSlEdAsxUBXknNsNpNzlXXhAk8Oyu/8vv54c5x6JjdXJseCpzZWxmI2p1bWJmPWMycGEuYXNzZXJ0aW9ucy9jMnBhLmFjdGlvbnMudjJkaGFzaFggMzdhQfZRI44HTwQ3xSdrlSuhGz1i4cxwbUw4VRfNWHWiY3VybHgpc2VsZiNqdW1iZj1jMnBhLmFzc2VydGlvbnMvYzJwYS5oYXNoLmRhdGFkaGFzaFggbMBaa6kbhdFVbfr/WGTWL5q+wkq1VqRumK/AIbV/A3B0Y2xhaW1fZ2VuZXJhdG9yX2luZm+jZG5hbWVvQW50aHJvcGljIEZpbGVzZ3ZlcnNpb25lMS4wLjBrc3BlY1ZlcnNpb25lMi40LjAAABA4anVtYgAAAChqdW1kYzJjcwARABCAAACqADibcQNjMnBhLnNpZ25hdHVyZQAAABAIY2JvctKEWQISogEmGCFZAgowggIGMIIBjaADAgECAhRA5aAK7sI50L64g/oGQgU9Z1UTADAKBggqhkjOPQQDAzBJMRcwFQYDVQQKEw5BbnRocm9waWMsIFBCQzEuMCwGA1UEAxMlQW50aHJvcGljIENvbnRlbnQgQ3JlZGVudGlhbHMgUm9vdCBDQTAeFw0yNjA4MDcxODQzNTZaFw0yODA4MDYxOTQzNTZaMEQxFzAVBgNVBAoTDkFudGhyb3BpYywgUEJDMSkwJwYDVQQDEyBBbnRocm9waWMgQ2xhdWRlIENvbnRlbnQgU2lnbmluZzBZMBMGByqGSM49AgEGCCqGSM49AwEHA0IABJh6CmvLUBgFFNU0vUKlOVtE6djd17L5SuwX0LemFisBM3dkd/3cyjxFA3Qo5S46fX0/ihY0VZ7mfb9KF703t5OjWDBWMA4GA1UdDwEB/wQEAwIHgDAVBgNVHSUEDjAMBgorBgEEAYPoXgIBMAwGA1UdEwEB/wQCMAAwHwYDVR0jBBgwFoAUzlHiBIFOZFsj+OPEz5o+nMHXXMIwCgYIKoZIzj0EAwMDZwAwZAIwMXMdFJ4BetLLVY7ORuE9noqbbAZOZn/aArXyTwFAZfKrPzxF2vPoJNf1+UCdg1XGAjBwX1zd9WGqYkqmL5SFqw1QySjr1zJfpJM9+1rdDwSPLMOPOjKuiXjoU/pUUeG9RwmhY3BhZFkNngAAAAAAAAAAAAAAAAAAAAAAAAAAAAAAAAAAAAAAAAAAAAAAAAAAAAAAAAAAAAAAAAAAAAAAAAAAAAAAAAAAAAAAAAAAAAAAAAAAAAAAAAAAAAAAAAAAAAAAAAAAAAAAAAAAAAAAAAAAAAAAAAAAAAAAAAAAAAAAAAAAAAAAAAAAAAAAAAAAAAAAAAAAAAAAAAAAAAAAAAAAAAAAAAAAAAAAAAAAAAAAAAAAAAAAAAAAAAAAAAAAAAAAAAAAAAAAAAAAAAAAAAAAAAAAAAAAAAAAAAAAAAAAAAAAAAAAAAAAAAAAAAAAAAAAAAAAAAAAAAAAAAAAAAAAAAAAAAAAAAAAAAAAAAAAAAAAAAAAAAAAAAAAAAAAAAAAAAAAAAAAAAAAAAAAAAAAAAAAAAAAAAAAAAAAAAAAAAAAAAAAAAAAAAAAAAAAAAAAAAAAAAAAAAAAAAAAAAAAAAAAAAAAAAAAAAAAAAAAAAAAAAAAAAAAAAAAAAAAAAAAAAAAAAAAAAAAAAAAAAAAAAAAAAAAAAAAAAAAAAAAAAAAAAAAAAAAAAAAAAAAAAAAAAAAAAAAAAAAAAAAAAAAAAAAAAAAAAAAAAAAAAAAAAAAAAAAAAAAAAAAAAAAAAAAAAAAAAAAAAAAAAAAAAAAAAAAAAAAAAAAAAAAAAAAAAAAAAAAAAAAAAAAAAAAAAAAAAAAAAAAAAAAAAAAAAAAAAAAAAAAAAAAAAAAAAAAAAAAAAAAAAAAAAAAAAAAAAAAAAAAAAAAAAAAAAAAAAAAAAAAAAAAAAAAAAAAAAAAAAAAAAAAAAAAAAAAAAAAAAAAAAAAAAAAAAAAAAAAAAAAAAAAAAAAAAAAAAAAAAAAAAAAAAAAAAAAAAAAAAAAAAAAAAAAAAAAAAAAAAAAAAAAAAAAAAAAAAAAAAAAAAAAAAAAAAAAAAAAAAAAAAAAAAAAAAAAAAAAAAAAAAAAAAAAAAAAAAAAAAAAAAAAAAAAAAAAAAAAAAAAAAAAAAAAAAAAAAAAAAAAAAAAAAAAAAAAAAAAAAAAAAAAAAAAAAAAAAAAAAAAAAAAAAAAAAAAAAAAAAAAAAAAAAAAAAAAAAAAAAAAAAAAAAAAAAAAAAAAAAAAAAAAAAAAAAAAAAAAAAAAAAAAAAAAAAAAAAAAAAAAAAAAAAAAAAAAAAAAAAAAAAAAAAAAAAAAAAAAAAAAAAAAAAAAAAAAAAAAAAAAAAAAAAAAAAAAAAAAAAAAAAAAAAAAAAAAAAAAAAAAAAAAAAAAAAAAAAAAAAAAAAAAAAAAAAAAAAAAAAAAAAAAAAAAAAAAAAAAAAAAAAAAAAAAAAAAAAAAAAAAAAAAAAAAAAAAAAAAAAAAAAAAAAAAAAAAAAAAAAAAAAAAAAAAAAAAAAAAAAAAAAAAAAAAAAAAAAAAAAAAAAAAAAAAAAAAAAAAAAAAAAAAAAAAAAAAAAAAAAAAAAAAAAAAAAAAAAAAAAAAAAAAAAAAAAAAAAAAAAAAAAAAAAAAAAAAAAAAAAAAAAAAAAAAAAAAAAAAAAAAAAAAAAAAAAAAAAAAAAAAAAAAAAAAAAAAAAAAAAAAAAAAAAAAAAAAAAAAAAAAAAAAAAAAAAAAAAAAAAAAAAAAAAAAAAAAAAAAAAAAAAAAAAAAAAAAAAAAAAAAAAAAAAAAAAAAAAAAAAAAAAAAAAAAAAAAAAAAAAAAAAAAAAAAAAAAAAAAAAAAAAAAAAAAAAAAAAAAAAAAAAAAAAAAAAAAAAAAAAAAAAAAAAAAAAAAAAAAAAAAAAAAAAAAAAAAAAAAAAAAAAAAAAAAAAAAAAAAAAAAAAAAAAAAAAAAAAAAAAAAAAAAAAAAAAAAAAAAAAAAAAAAAAAAAAAAAAAAAAAAAAAAAAAAAAAAAAAAAAAAAAAAAAAAAAAAAAAAAAAAAAAAAAAAAAAAAAAAAAAAAAAAAAAAAAAAAAAAAAAAAAAAAAAAAAAAAAAAAAAAAAAAAAAAAAAAAAAAAAAAAAAAAAAAAAAAAAAAAAAAAAAAAAAAAAAAAAAAAAAAAAAAAAAAAAAAAAAAAAAAAAAAAAAAAAAAAAAAAAAAAAAAAAAAAAAAAAAAAAAAAAAAAAAAAAAAAAAAAAAAAAAAAAAAAAAAAAAAAAAAAAAAAAAAAAAAAAAAAAAAAAAAAAAAAAAAAAAAAAAAAAAAAAAAAAAAAAAAAAAAAAAAAAAAAAAAAAAAAAAAAAAAAAAAAAAAAAAAAAAAAAAAAAAAAAAAAAAAAAAAAAAAAAAAAAAAAAAAAAAAAAAAAAAAAAAAAAAAAAAAAAAAAAAAAAAAAAAAAAAAAAAAAAAAAAAAAAAAAAAAAAAAAAAAAAAAAAAAAAAAAAAAAAAAAAAAAAAAAAAAAAAAAAAAAAAAAAAAAAAAAAAAAAAAAAAAAAAAAAAAAAAAAAAAAAAAAAAAAAAAAAAAAAAAAAAAAAAAAAAAAAAAAAAAAAAAAAAAAAAAAAAAAAAAAAAAAAAAAAAAAAAAAAAAAAAAAAAAAAAAAAAAAAAAAAAAAAAAAAAAAAAAAAAAAAAAAAAAAAAAAAAAAAAAAAAAAAAAAAAAAAAAAAAAAAAAAAAAAAAAAAAAAAAAAAAAAAAAAAAAAAAAAAAAAAAAAAAAAAAAAAAAAAAAAAAAAAAAAAAAAAAAAAAAAAAAAAAAAAAAAAAAAAAAAAAAAAAAAAAAAAAAAAAAAAAAAAAAAAAAAAAAAAAAAAAAAAAAAAAAAAAAAAAAAAAAAAAAAAAAAAAAAAAAAAAAAAAAAAAAAAAAAAAAAAAAAAAAAAAAAAAAAAAAAAAAAAAAAAAAAAAAAAAAAAAAAAAAAAAAAAAAAAAAAAAAAAAAAAAAAAAAAAAAAAAAAAAAAAAAAAAAAAAAAAAAAAAAAAAAAAAAAAAAAAAAAAAAAAAAAAAAAAAAAAAAAAAAAAAAAAAAAAAAAAAAAAAAAAAAAAAAAAAAAAAAAAAAAAAAAAAAAAAAAAAAAAAAAAAAAAAAAAAAAAAAAAAAAAAAAAAAAAAAAAAAAAAAAAAAAAAAAAAAAAAAAAAAAAAAAAAAAAAAAAAAAAAAAAAAAAAAAAAAAAAAAAAAAAAAAAAAAAAAAAAAAAAAAAAAAAAAAAAAAAAAAAAAAAAAAAAAAAAAAAAAAAAAAAAAAAAAAAAAAAAAAAAAAAAAAAAAAAAAAAAAAAAAAAAAAAAAAAAAAAAAAAAAAAAAAAAAAAAAAAAAAAAAAAAAAAAAAAAAAAAAAAAAAAAAAAAAAAAAAAAAAAAAAAAAAAAAAAAAAAAAAAAAAAAAAAAAAAAAAAAAAAAAAAAAAAAAAAAAAAAAAAAAAAAAAAAAAAAAAAAAAAAAAAAAAAAAAAAAAAAAAAAAAAAAAAAAAAAAAAAAAAAAAAAAAAAAAAAAAAAAAAAAAAAAAAAAAAAAAAAAAAAAAAAAAAAAAAAAAAAAAAAAAAAAAAAAAAAAAAAAAAAAAAAAAAAAAAAAAAAAAAAAAAAAAAAAAAAAAAAAAAAAAAAAAAAAAAAAAAAAAAAAAAAAAAAAAAAAAAAAAAAAAAAAAAAAAAAAAAAAAAAAAAAAAAAAAAAAAAAAAAAAAAAAAAAAAAAAAAAAAAAAAAAAAAAAAAAAAAAAAAAAAAAAAAAAAAAAAAAAAAAAAAAAAAAAAAAAAAAAAAAAAAAAAAAAAAAAAAAAAAAAAAAAAAAAAAAAAAAAAAAAAAAAAAAAAAAAAAAAAAAAAAAAAAAAAAAAAAAAAAAAAAAAAAAAAAAAAAAAAAAAAAAAAAAAAAAAAAAAAAAAAAAAAAAAAAAAAAAAAAAAAAAAAAAAAAAAAAAAAAAAAAAAAAAAAAAAAAAAAAAAAAAAAAAAAAAAAAAAAAAAAAAAAAAAAAAAAAAAAAAAAAAAAAAAAAAAAAAAAAAAAAAAAAAAAAAAAAAAAAAAAAAAAAAAAAAAAAAAAAAAAAAAAAAAAAAAAAAAAAAAAAAAAAAAAAAAAAAAAAAAAAAAAAAAAAAAAAAAAAAAAAAAAAAAAAAAAAAAAAAAAAAAAAAAAAAAAAAAAAAAAAAAAAAAAAAAAAAAAAAAAAAAAAAAAAAAAAAAAAAAAAAAAAAAAAAAAAAAAAAAAAAAAAAAAAAAAAAAAAAAAAAAAAAAAAAAAAAAAAAAAAAAAAAAAAAAAAAAAAAAAAAAAAAAAAAAAAAAAAAAAAAAAAAAAAAAAAAAAAAAAAAAAAAAAAAAAAAAAAAAAAAAAAAAAAAAAAAAAAAAAAAAAAAAAAAAAAAAAAAAAAAAAAAAAAAAAAAAAAAAAAAAAAAAAAAAAAAAAAAAAAAAAAAAAAAAAAAAAAAAAAAAAAAAAAAAAAAAAAAAAAAAAAAAAAAAAAAAAAAAAAAAAAAAAAAAAAAAAAAAAAAAAAAAAAAAAAAAAAAAAAAAAAAAAAAAAAAAAAAAAAAAAAAAAAAAAAAAAAAAAAAAAAAAAAAAAAAAAAAAAAAAAAAAAAAAAAAAAAAAAAAAAAAAAAAAAAAAAAAAAAAAAAAAAAAAAAAAAAAAAAAAAAAAAAAAAAAAAAAAAAAAAAAAAAAAAAAAAAAAAAAAAAAAAAAAAAAAAAAAAAAAAAAAAAAAAAAAAAAAAAAAAAAAAAAAAAAAAAAAAAAAAAAAAPZYQFKVPQ4CaqazahI5W7qPVIGreZb85xEpL131J6jnBxnraoBfzbLntEmHzR24mWF4Dkwh+Twlzzhqaavqrc6Azm8=</c2pa:manifest></metadata>
<defs>
<linearGradient id="rimL" x1="0" y1="0" x2="0" y2="1">
  <stop offset="0" stop-color="#FFFFFF" stop-opacity="0.95"/>
  <stop offset="0.5" stop-color="#FFFFFF" stop-opacity="0.25"/>
  <stop offset="1" stop-color="#6B7380" stop-opacity="0.30"/>
</linearGradient>
<linearGradient id="rimD" x1="0" y1="0" x2="0" y2="1">
  <stop offset="0" stop-color="#FFFFFF" stop-opacity="0.50"/>
  <stop offset="0.45" stop-color="#FFFFFF" stop-opacity="0.08"/>
  <stop offset="1" stop-color="#FFFFFF" stop-opacity="0.16"/>
</linearGradient>
<linearGradient id="sheen" gradientUnits="userSpaceOnUse" x1="0" y1="100" x2="0" y2="580">
  <stop offset="0" stop-color="#FFFFFF" stop-opacity="0.14"/>
  <stop offset="1" stop-color="#FFFFFF" stop-opacity="0"/>
</linearGradient>

<linearGradient id="tileB" gradientUnits="userSpaceOnUse" x1="512" y1="100" x2="512" y2="924">
  <stop offset="0" stop-color="#6E7C8F"/>
  <stop offset="0.45" stop-color="#4E5B6D"/>
  <stop offset="1" stop-color="#2F3845"/>
</linearGradient>
<linearGradient id="paperB" gradientUnits="userSpaceOnUse" x1="512" y1="272" x2="512" y2="876">
  <stop offset="0" stop-color="#FFFFFF"/>
  <stop offset="1" stop-color="#D9E0E9"/>
</linearGradient>
<linearGradient id="clipB" gradientUnits="userSpaceOnUse" x1="420" y1="132" x2="610" y2="300">
  <stop offset="0" stop-color="#FBFCFE"/>
  <stop offset="0.3" stop-color="#C2CAD6"/>
  <stop offset="0.52" stop-color="#788495"/>
  <stop offset="0.76" stop-color="#CDD5DF"/>
  <stop offset="1" stop-color="#8C96A6"/>
</linearGradient>

<linearGradient id="chromeB" gradientUnits="userSpaceOnUse" x1="0" y1="-195" x2="0" y2="145">
  <stop offset="0.0" stop-color="#FFFFFF" stop-opacity="1"/><stop offset="0.07" stop-color="#DDE4EC" stop-opacity="1"/><stop offset="0.19" stop-color="#9EA9B8" stop-opacity="1"/><stop offset="0.31" stop-color="#667385" stop-opacity="1"/><stop offset="0.42" stop-color="#414D5C" stop-opacity="1"/><stop offset="0.52" stop-color="#7C8899" stop-opacity="1"/><stop offset="0.66" stop-color="#C4CDD8" stop-opacity="1"/><stop offset="0.8" stop-color="#F2F6FA" stop-opacity="1"/><stop offset="0.9" stop-color="#AEB8C4" stop-opacity="1"/><stop offset="1.0" stop-color="#7C8797" stop-opacity="1"/>
</linearGradient>
<linearGradient id="glossB" gradientUnits="userSpaceOnUse" x1="0" y1="-195" x2="0" y2="10">
  <stop offset="0" stop-color="#FFFFFF" stop-opacity="0.55"/>
  <stop offset="0.4" stop-color="#FFFFFF" stop-opacity="0.09"/>
  <stop offset="1" stop-color="#FFFFFF" stop-opacity="0"/>
</linearGradient>
<linearGradient id="woodB" gradientUnits="userSpaceOnUse" x1="222" y1="0" x2="310" y2="0">
  <stop offset="0.0" stop-color="#8A6132" stop-opacity="1"/><stop offset="0.12" stop-color="#B98D50" stop-opacity="1"/><stop offset="0.36" stop-color="#EACD98" stop-opacity="1"/><stop offset="0.56" stop-color="#D9B478" stop-opacity="1"/><stop offset="0.8" stop-color="#B2854A" stop-opacity="1"/><stop offset="1.0" stop-color="#845C2E" stop-opacity="1"/>
</linearGradient>
<linearGradient id="woodendB" gradientUnits="userSpaceOnUse" x1="0" y1="70" x2="0" y2="722">
  <stop offset="0" stop-color="#4A2F12" stop-opacity="0.45"/>
  <stop offset="0.12" stop-color="#4A2F12" stop-opacity="0.06"/>
  <stop offset="0.74" stop-color="#4A2F12" stop-opacity="0"/>
  <stop offset="1" stop-color="#4A2F12" stop-opacity="0.22"/>
</linearGradient>
<radialGradient id="pollspecB">
  <stop offset="0" stop-color="#FFFFFF" stop-opacity="0.70"/>
  <stop offset="0.55" stop-color="#FFFFFF" stop-opacity="0.24"/>
  <stop offset="1" stop-color="#FFFFFF" stop-opacity="0"/>
</radialGradient>
<clipPath id="handleclipB"><path d="M 226 70 L 306 76 C 314 268 330 456 350 646 C 355 690 338 716 304 722 C 268 728 248 709 244 668 C 232 470 226 268 226 70 Z"/></clipPath>
<clipPath id="headclipB"><path d="M 14 -66 C 42 -73 80 -71 112 -65 L 190 -58 C 240 -55 272 -66 298 -92 C 342 -154 414 -186 480 -166 C 534 -148 554 -94 536 -42 C 520 8 486 74 438 116 L 404 90 C 446 56 474 2 468 -46 C 460 -100 428 -126 392 -120 C 360 -114 344 -86 336 -50 C 336 -20 334 30 336 76 C 337 110 330 134 310 141 L 236 132 C 214 120 204 96 200 64 L 116 60 C 84 67 42 69 14 62 C 2 40 2 -40 14 -66 Z"/></clipPath>

<clipPath id="tileclip"><path d="M 627.3600 100.0000 c 103.8337 0 155.7506 0 195.4098 20.2074 a 185.4000 185.4000 0 0 1 81.0228 81.0228 c 20.2074 39.6592 20.2074 91.5761 20.2074 195.4098 L 924.0000 627.3600 c 0 103.8337 0 155.7506 -20.2074 195.4098 a 185.4000 185.4000 0 0 1 -81.0228 81.0228 c -39.6592 20.2074 -91.5761 20.2074 -195.4098 20.2074 L 396.6400 924.0000 c -103.8337 0 -155.7506 0 -195.4098 -20.2074 a 185.4000 185.4000 0 0 1 -81.0228 -81.0228 c -20.2074 -39.6592 -20.2074 -91.5761 -20.2074 -195.4098 L 100.0000 396.6400 c 0 -103.8337 0 -155.7506 20.2074 -195.4098 a 185.4000 185.4000 0 0 1 81.0228 -81.0228 c 39.6592 -20.2074 91.5761 -20.2074 195.4098 -20.2074 Z"/></clipPath>
<filter id="contact" x="-25%" y="-25%" width="150%" height="150%"
        color-interpolation-filters="sRGB">
  <feDropShadow dx="6" dy="10" stdDeviation="18" flood-color="#000000"
                flood-opacity="0.52"/>
</filter>
</defs>

<path d="M 627.3600 100.0000 c 103.8337 0 155.7506 0 195.4098 20.2074 a 185.4000 185.4000 0 0 1 81.0228 81.0228 c 20.2074 39.6592 20.2074 91.5761 20.2074 195.4098 L 924.0000 627.3600 c 0 103.8337 0 155.7506 -20.2074 195.4098 a 185.4000 185.4000 0 0 1 -81.0228 81.0228 c -39.6592 20.2074 -91.5761 20.2074 -195.4098 20.2074 L 396.6400 924.0000 c -103.8337 0 -155.7506 0 -195.4098 -20.2074 a 185.4000 185.4000 0 0 1 -81.0228 -81.0228 c -20.2074 -39.6592 -20.2074 -91.5761 -20.2074 -195.4098 L 100.0000 396.6400 c 0 -103.8337 0 -155.7506 20.2074 -195.4098 a 185.4000 185.4000 0 0 1 81.0228 -81.0228 c 39.6592 -20.2074 91.5761 -20.2074 195.4098 -20.2074 Z" fill="url(#tileB)"/><rect x="198" y="266" width="628" height="606" rx="32" fill="url(#paperB)"/><rect x="258" y="404" width="452" height="26" rx="13.0" fill="#57687E" fill-opacity="0.52"/><rect x="258" y="478" width="340" height="26" rx="13.0" fill="#57687E" fill-opacity="0.38"/><rect x="258" y="552" width="494" height="26" rx="13.0" fill="#57687E" fill-opacity="0.46"/><rect x="258" y="626" width="292" height="26" rx="13.0" fill="#57687E" fill-opacity="0.32"/><rect x="258" y="700" width="420" height="26" rx="13.0" fill="#57687E" fill-opacity="0.4"/><rect x="466" y="108" width="92" height="110" rx="30" fill="url(#clipB)"/><rect x="428" y="178" width="168" height="124" rx="30" fill="url(#clipB)"/><rect x="446" y="268" width="132" height="8" rx="4" fill="#2F3845" fill-opacity="0.34"/><path d="M 627.3600 100.0000 c 103.8337 0 155.7506 0 195.4098 20.2074 a 185.4000 185.4000 0 0 1 81.0228 81.0228 c 20.2074 39.6592 20.2074 91.5761 20.2074 195.4098 L 924.0000 627.3600 c 0 103.8337 0 155.7506 -20.2074 195.4098 a 185.4000 185.4000 0 0 1 -81.0228 81.0228 c -39.6592 20.2074 -91.5761 20.2074 -195.4098 20.2074 L 396.6400 924.0000 c -103.8337 0 -155.7506 0 -195.4098 -20.2074 a 185.4000 185.4000 0 0 1 -81.0228 -81.0228 c -20.2074 -39.6592 -20.2074 -91.5761 -20.2074 -195.4098 L 100.0000 396.6400 c 0 -103.8337 0 -155.7506 20.2074 -195.4098 a 185.4000 185.4000 0 0 1 81.0228 -81.0228 c 39.6592 -20.2074 91.5761 -20.2074 195.4098 -20.2074 Z" fill="url(#sheen)"/><path d="M 627.3600 100.0000 c 103.8337 0 155.7506 0 195.4098 20.2074 a 185.4000 185.4000 0 0 1 81.0228 81.0228 c 20.2074 39.6592 20.2074 91.5761 20.2074 195.4098 L 924.0000 627.3600 c 0 103.8337 0 155.7506 -20.2074 195.4098 a 185.4000 185.4000 0 0 1 -81.0228 81.0228 c -39.6592 20.2074 -91.5761 20.2074 -195.4098 20.2074 L 396.6400 924.0000 c -103.8337 0 -155.7506 0 -195.4098 -20.2074 a 185.4000 185.4000 0 0 1 -81.0228 -81.0228 c -20.2074 -39.6592 -20.2074 -91.5761 -20.2074 -195.4098 L 100.0000 396.6400 c 0 -103.8337 0 -155.7506 20.2074 -195.4098 a 185.4000 185.4000 0 0 1 81.0228 -81.0228 c 39.6592 -20.2074 91.5761 -20.2074 195.4098 -20.2074 Z" fill="none" stroke="url(#rimD)" stroke-width="3.5"/>
<g clip-path="url(#tileclip)"><g filter="url(#contact)">
<g transform="translate(516 556) rotate(-32) scale(0.6) translate(-278.0 -267.0)">
  <g clip-path="url(#handleclipB)">
    <path d="M 226 70 L 306 76 C 314 268 330 456 350 646 C 355 690 338 716 304 722 C 268 728 248 709 244 668 C 232 470 226 268 226 70 Z" fill="url(#woodB)"/>
    <path d="M 242 90 C 245 300 248 480 250 700" stroke="#6B4A22" stroke-opacity="0.22" stroke-width="4" fill="none" stroke-linecap="round"/><path d="M 258 90 C 262 300 266 480 268 700" stroke="#6B4A22" stroke-opacity="0.13" stroke-width="2.5" fill="none" stroke-linecap="round"/><path d="M 276 90 C 281 300 286 480 288 700" stroke="#6B4A22" stroke-opacity="0.24" stroke-width="3.5" fill="none" stroke-linecap="round"/><path d="M 292 90 C 298 300 304 480 306 700" stroke="#6B4A22" stroke-opacity="0.12" stroke-width="2.5" fill="none" stroke-linecap="round"/>
    <path d="M 226 70 L 306 76 C 314 268 330 456 350 646 C 355 690 338 716 304 722 C 268 728 248 709 244 668 C 232 470 226 268 226 70 Z" fill="url(#woodendB)"/>
  </g>
  <path d="M 14 -66 C 42 -73 80 -71 112 -65 L 190 -58 C 240 -55 272 -66 298 -92 C 342 -154 414 -186 480 -166 C 534 -148 554 -94 536 -42 C 520 8 486 74 438 116 L 404 90 C 446 56 474 2 468 -46 C 460 -100 428 -126 392 -120 C 360 -114 344 -86 336 -50 C 336 -20 334 30 336 76 C 337 110 330 134 310 141 L 236 132 C 214 120 204 96 200 64 L 116 60 C 84 67 42 69 14 62 C 2 40 2 -40 14 -66 Z" fill="url(#chromeB)"/>
  <g clip-path="url(#headclipB)">
    <rect x="-40" y="-230" width="680" height="330" fill="url(#glossB)"/>
    <path d="M 210 -56 C 250 -56 280 -70 306 -96 C 348 -146 412 -174 474 -154" fill="none" stroke="#FFFFFF" stroke-opacity="0.7"
          stroke-width="10" stroke-linecap="round"/>
    <path d="M 40 -66 C 30 -34 30 30 40 62" fill="none" stroke="#FFFFFF" stroke-opacity="0.45"
          stroke-width="7" stroke-linecap="round"/>
    <ellipse cx="62" cy="-34" rx="34" ry="20" transform="rotate(-14 62 -34)"
             fill="url(#pollspecB)"/>
  </g>
</g>
</g></g>
</svg>